<svg width="825" height="857" viewBox="0 0 825 857" fill="none" xmlns="http://www.w3.org/2000/svg">
<g clip-path="url(#clip0_1305_2)">
<path d="M271.308 675.402C223.374 675.402 179.354 668.314 139.246 654.138C99.6271 639.962 67.5898 619.186 43.1339 591.812C18.678 563.949 5.22718 529.73 2.78158 489.158C1.80335 472.537 4.4935 454.206 10.852 434.164C17.2106 414.122 26.0148 394.324 37.2645 374.771C49.0033 354.729 62.6986 336.887 78.3504 321.244C94.4913 305.113 111.61 292.892 129.708 284.582C131.175 283.604 133.376 282.871 136.311 282.382C139.735 281.893 142.18 281.649 143.648 281.649C146.582 281.649 148.05 282.382 148.05 283.849C148.05 286.293 144.381 290.204 137.045 295.581C116.502 311.712 99.6271 330.288 86.4209 351.307C72.7256 372.327 62.4541 394.813 55.6064 418.766C48.7588 442.719 45.3349 466.916 45.3349 491.357C45.3349 520.198 51.4489 545.129 63.6769 566.148C76.394 586.679 93.2685 603.544 114.301 616.742C135.333 630.429 159.3 640.45 186.201 646.805C213.103 653.16 241.227 656.337 270.574 656.337C303.345 656.337 335.627 652.671 367.42 645.339C399.701 638.006 429.049 627.496 455.461 613.809C496.058 592.301 528.095 565.659 551.573 533.885C575.539 502.112 587.523 470.582 587.523 439.297C587.523 422.677 583.854 406.79 576.518 391.636C569.67 376.482 558.42 362.795 542.769 350.574C531.03 341.286 516.601 332.487 499.482 324.177C482.852 315.867 464.999 307.801 445.923 299.98C427.337 292.159 408.995 284.338 390.897 276.516C372.8 268.206 356.904 259.407 343.208 250.119C323.644 236.921 309.215 222.745 299.921 207.591C291.117 192.437 286.715 177.284 286.715 162.13C286.715 144.043 291.851 126.445 302.122 109.336C312.883 92.2273 327.312 76.8291 345.409 63.1419C363.996 48.9658 384.783 37.9671 407.772 30.1458C427.826 23.3022 449.591 17.9251 473.069 14.0144C497.036 10.1037 520.514 8.14844 543.502 8.14844C562.578 8.14844 580.675 9.61493 597.794 12.5479C615.403 14.992 630.81 19.636 644.016 26.4796C660.646 34.3009 673.363 44.8107 682.167 58.0091C690.971 70.7187 695.373 84.1616 695.373 98.3376C695.373 117.891 686.569 135 668.961 149.665C662.602 154.553 655.51 159.197 647.684 163.596C639.858 167.507 630.565 170.929 619.805 173.862C617.848 174.351 615.647 174.595 613.202 174.595C607.332 174.595 604.397 172.884 604.397 169.462C604.397 167.507 605.865 165.552 608.799 163.596C612.223 161.152 617.114 159.686 623.473 159.197C638.147 157.242 649.152 151.62 656.489 142.332C664.314 133.045 668.227 122.29 668.227 110.07C668.227 97.36 663.825 84.8948 655.021 72.6741C646.706 59.9645 633.744 49.4546 616.136 41.1445C598.528 32.3456 576.029 27.9461 548.638 27.9461C532.986 27.9461 515.622 29.657 496.547 33.0788C477.96 36.5006 457.662 42.1222 435.652 49.9434C408.75 59.2312 386.251 72.9185 368.153 91.0052C350.545 109.092 341.741 128.401 341.741 148.932C341.741 161.641 345.898 174.595 354.213 187.794C363.018 200.503 376.957 212.724 396.033 224.456C412.174 234.232 430.516 244.009 451.059 253.786C471.602 263.073 492.389 272.606 513.421 282.382C534.453 291.67 553.529 301.691 570.648 312.445C597.55 329.066 616.87 346.908 628.609 365.972C640.348 385.037 646.217 404.59 646.217 424.632C646.217 448.096 639.125 471.804 624.94 495.757C611.245 519.221 593.148 541.462 570.648 562.482C548.149 583.013 523.448 601.344 496.547 617.475C465.243 636.051 429.782 650.227 390.164 660.004C351.034 670.269 311.416 675.402 271.308 675.402Z" fill="black"/>
<path d="M636.528 645.429V636.631H721.634L650.468 440.121C630.658 559.64 476.586 638.83 347.459 652.029C363.6 583.837 403.218 527.377 448.706 479.716C431.098 460.652 423.028 436.454 423.028 414.457C423.761 371.196 453.109 335.267 495.662 323.535L574.165 115.293H591.774L785.464 636.631H842.691V645.429H636.528ZM639.463 430.589C639.463 393.926 624.789 360.197 591.774 343.332C580.768 359.464 563.894 377.062 545.552 396.859C481.722 463.585 424.495 528.11 424.495 626.365C523.542 603.634 639.463 526.644 639.463 430.589ZM455.31 473.117C473.651 451.853 495.662 431.322 515.471 412.991C543.351 385.127 568.296 360.93 583.703 338.933C567.562 331.6 550.688 327.934 532.346 327.934C476.586 327.934 432.566 364.596 432.566 414.457C432.566 432.055 439.169 455.519 455.31 473.117ZM618.186 350.665L560.225 181.285L507.401 320.602C515.471 319.135 524.275 318.402 531.612 318.402C566.095 318.402 596.909 330.134 618.186 350.665Z" fill="black"/>
</g>
<defs>
<clipPath id="clip0_1305_2">
<rect width="825" height="857" fill="white"/>
</clipPath>
</defs>
</svg>
